<svg xmlns="http://www.w3.org/2000/svg" xmlns:xlink="http://www.w3.org/1999/xlink" width="200" zoomAndPan="magnify" viewBox="0 0 150 149.999998" height="200" preserveAspectRatio="xMidYMid meet" version="1.0"><defs><clipPath id="77546fc327"><path d="M 34 7 L 118 7 L 118 142.730469 L 34 142.730469 Z M 34 7 " clip-rule="nonzero"/></clipPath><clipPath id="2eaa8fbff2"><path d="M 34 76 L 75 76 L 75 142.730469 L 34 142.730469 Z M 34 76 " clip-rule="nonzero"/></clipPath></defs><g clip-path="url(#77546fc327)"><path fill="#ff6f28" d="M 113.574219 143.027344 C 115.246094 141.382812 117.300781 136.15625 117.300781 129.214844 C 117.300781 123.242188 115.78125 116.007812 111.199219 108.691406 C 104.34375 97.75 92.515625 84.078125 83.511719 73.894531 C 85.292969 71.207031 86.496094 69.402344 86.875 68.859375 C 88.914062 65.953125 90.640625 61.039062 91.175781 54.992188 C 92.089844 55.414062 93.066406 55.777344 94.113281 56.0625 C 104.421875 58.867188 112.828125 52.703125 116.175781 40.402344 C 119.515625 28.109375 115.3125 18.515625 105.082031 15.730469 C 94.769531 12.925781 86.367188 19.089844 83.019531 31.386719 C 82.457031 33.457031 82.101562 35.753906 82.035156 37.3125 C 81.625 47.097656 81.875 56.445312 80.253906 59.691406 C 79.855469 60.484375 78.230469 62.441406 75.824219 65.199219 C 73.414062 62.4375 71.792969 60.484375 71.394531 59.691406 C 69.773438 56.445312 70.023438 47.097656 69.613281 37.3125 C 69.546875 35.753906 69.191406 33.457031 68.628906 31.386719 C 65.359375 19.375 57.265625 13.21875 47.277344 15.554688 C 47.132812 15.414062 46.988281 15.269531 46.84375 15.121094 C 44.320312 12.542969 44.878906 6.972656 41.367188 7.78125 C 37.886719 8.582031 37.523438 16.136719 39.058594 19.945312 C 35.976562 23.023438 34.347656 27.355469 34.347656 32.507812 C 34.347656 34.96875 34.71875 37.617188 35.476562 40.402344 C 38.820312 52.703125 47.226562 58.867188 57.535156 56.0625 C 58.582031 55.777344 59.558594 55.414062 60.472656 54.992188 C 61.007812 61.039062 62.734375 65.957031 64.773438 68.859375 C 67.542969 72.808594 113.574219 143.027344 113.574219 143.027344 Z M 96.191406 48.425781 C 90.84375 46.972656 91.402344 41.296875 93.332031 34.195312 C 95.265625 27.089844 97.734375 21.9375 103.003906 23.371094 C 108.269531 24.804688 107.792969 30.5 105.855469 37.601562 C 103.90625 44.78125 101.535156 49.878906 96.191406 48.425781 Z M 45.792969 37.601562 C 44.992188 34.667969 44.441406 31.972656 44.441406 29.722656 C 44.441406 26.523438 45.554688 24.210938 48.644531 23.371094 C 53.917969 21.933594 56.382812 27.089844 58.316406 34.195312 C 59.121094 37.15625 59.6875 39.867188 59.6875 42.128906 C 59.6875 45.292969 58.578125 47.578125 55.457031 48.425781 C 50.113281 49.878906 47.742188 44.78125 45.792969 37.601562 Z M 45.792969 37.601562 " fill-opacity="1" fill-rule="nonzero"/></g><g clip-path="url(#2eaa8fbff2)"><path fill="#ff6f28" d="M 66.257812 76.023438 C 57.546875 85.929688 46.839844 98.496094 40.449219 108.691406 C 30.535156 124.515625 34.964844 139.972656 38.074219 143.027344 C 38.074219 143.027344 59.683594 110.0625 74.183594 88.035156 C 71.070312 83.304688 68.328125 79.152344 66.257812 76.023438 Z M 66.257812 76.023438 " fill-opacity="1" fill-rule="nonzero"/></g></svg>