<svg xmlns="http://www.w3.org/2000/svg" xmlns:xlink="http://www.w3.org/1999/xlink" width="300" zoomAndPan="magnify" viewBox="0 0 224.87999 48.75" height="65" preserveAspectRatio="xMidYMid meet" version="1.0"><defs><g/><clipPath id="3d68942437"><path d="M 54.660156 1.128906 L 76.820312 1.128906 L 76.820312 35.222656 L 54.660156 35.222656 Z M 54.660156 1.128906 " clip-rule="nonzero"/></clipPath><clipPath id="5a83674cd7"><path d="M 56 3.425781 L 75 3.425781 L 75 32.640625 L 56 32.640625 Z M 56 3.425781 " clip-rule="nonzero"/></clipPath><clipPath id="f45f72f33f"><path d="M 56 18 L 66 18 L 66 32.640625 L 56 32.640625 Z M 56 18 " clip-rule="nonzero"/></clipPath></defs><g fill="#2f2e2a" fill-opacity="1"><g transform="translate(10.648208, 29.66528)"><g><path d="M 10.109375 0.375 C 8.585938 0.375 7.140625 0.140625 5.765625 -0.328125 C 4.390625 -0.804688 3.269531 -1.484375 2.40625 -2.359375 C 1.550781 -3.234375 1.125 -4.28125 1.125 -5.5 C 1.125 -6.25 1.375 -6.847656 1.875 -7.296875 C 2.375 -7.742188 2.984375 -7.96875 3.703125 -7.96875 C 4.628906 -7.96875 5.363281 -7.679688 5.90625 -7.109375 C 6.457031 -6.535156 6.734375 -5.863281 6.734375 -5.09375 C 6.734375 -5.09375 6.640625 -5.0625 6.453125 -5 C 6.265625 -4.9375 6.066406 -4.816406 5.859375 -4.640625 C 5.648438 -4.460938 5.503906 -4.175781 5.421875 -3.78125 C 5.398438 -3.675781 5.390625 -3.570312 5.390625 -3.46875 C 5.390625 -3.375 5.390625 -3.28125 5.390625 -3.1875 C 5.390625 -2.457031 5.617188 -1.867188 6.078125 -1.421875 C 6.546875 -0.972656 7.128906 -0.640625 7.828125 -0.421875 C 8.523438 -0.210938 9.210938 -0.109375 9.890625 -0.109375 C 10.410156 -0.109375 11.015625 -0.179688 11.703125 -0.328125 C 12.390625 -0.484375 12.988281 -0.765625 13.5 -1.171875 C 14.007812 -1.585938 14.265625 -2.171875 14.265625 -2.921875 C 14.265625 -3.722656 13.976562 -4.421875 13.40625 -5.015625 C 12.832031 -5.617188 12.082031 -6.164062 11.15625 -6.65625 C 10.226562 -7.15625 9.238281 -7.660156 8.1875 -8.171875 C 7.144531 -8.691406 6.148438 -9.242188 5.203125 -9.828125 C 4.253906 -10.410156 3.453125 -11.078125 2.796875 -11.828125 C 2.148438 -12.578125 1.765625 -13.460938 1.640625 -14.484375 C 1.472656 -16.054688 1.742188 -17.34375 2.453125 -18.34375 C 3.160156 -19.34375 4.15625 -20.078125 5.4375 -20.546875 C 6.726562 -21.023438 8.148438 -21.265625 9.703125 -21.265625 C 10.972656 -21.265625 12.164062 -21.050781 13.28125 -20.625 C 14.40625 -20.195312 15.316406 -19.582031 16.015625 -18.78125 C 16.722656 -17.988281 17.078125 -17.03125 17.078125 -15.90625 C 17.078125 -15.257812 16.863281 -14.742188 16.4375 -14.359375 C 16.007812 -13.972656 15.472656 -13.78125 14.828125 -13.78125 C 14.023438 -13.78125 13.378906 -14.035156 12.890625 -14.546875 C 12.410156 -15.054688 12.171875 -15.632812 12.171875 -16.28125 C 12.171875 -16.28125 12.273438 -16.316406 12.484375 -16.390625 C 12.691406 -16.472656 12.898438 -16.65625 13.109375 -16.9375 C 13.328125 -17.226562 13.4375 -17.6875 13.4375 -18.3125 C 13.4375 -19.0625 13.097656 -19.648438 12.421875 -20.078125 C 11.753906 -20.515625 10.867188 -20.734375 9.765625 -20.734375 C 8.773438 -20.734375 7.910156 -20.519531 7.171875 -20.09375 C 6.429688 -19.675781 6.0625 -18.957031 6.0625 -17.9375 C 6.0625 -17.082031 6.351562 -16.34375 6.9375 -15.71875 C 7.53125 -15.09375 8.285156 -14.53125 9.203125 -14.03125 C 10.128906 -13.539062 11.113281 -13.054688 12.15625 -12.578125 C 13.207031 -12.109375 14.210938 -11.609375 15.171875 -11.078125 C 16.140625 -10.554688 16.945312 -9.957031 17.59375 -9.28125 C 18.238281 -8.613281 18.601562 -7.816406 18.6875 -6.890625 C 18.882812 -5.335938 18.601562 -4.019531 17.84375 -2.9375 C 17.082031 -1.851562 16.015625 -1.03125 14.640625 -0.46875 C 13.265625 0.09375 11.753906 0.375 10.109375 0.375 Z M 10.109375 0.375 "/></g></g></g><g fill="#2f2e2a" fill-opacity="1"><g transform="translate(31.159843, 29.66528)"><g><path d="M 1.875 0 L 1.875 -20.96875 L 7.53125 -20.96875 L 7.53125 -10.78125 L 15.09375 -10.78125 L 15.09375 -20.96875 L 20.734375 -20.96875 L 20.734375 0 L 15.09375 0 L 15.09375 -10.40625 L 7.53125 -10.40625 L 7.53125 0 Z M 1.875 0 "/></g></g></g><g fill="#2f2e2a" fill-opacity="1"><g transform="translate(54.403846, 29.66528)"><g><path d="M 0.5625 0 L 10.140625 -21.265625 L 20.859375 0 L 14.640625 0 L 11.796875 -6.296875 L 3.8125 -6.296875 L 0.96875 0 Z M 4 -6.65625 L 11.640625 -6.65625 L 7.828125 -15.046875 Z M 4 -6.65625 "/></g></g></g><g fill="#2f2e2a" fill-opacity="1"><g transform="translate(76.450095, 29.66528)"><g><path d="M 11.3125 0.375 L 0.5625 -20.96875 L 6.78125 -20.96875 L 13.625 -5.84375 L 20.515625 -20.96875 L 20.921875 -20.96875 Z M 11.3125 0.375 "/></g></g></g><g fill="#2f2e2a" fill-opacity="1"><g transform="translate(98.571212, 29.66528)"><g><path d="M 1.875 0 L 1.875 -20.96875 L 17.890625 -20.96875 L 17.890625 -14 L 17.515625 -14 C 17.515625 -15.300781 17.203125 -16.441406 16.578125 -17.421875 C 15.960938 -18.410156 15.097656 -19.1875 13.984375 -19.75 C 12.867188 -20.3125 11.585938 -20.59375 10.140625 -20.59375 L 7.53125 -20.59375 L 7.53125 -10.859375 L 7.96875 -10.859375 C 9.570312 -10.878906 10.835938 -11.28125 11.765625 -12.0625 C 12.703125 -12.851562 13.171875 -13.972656 13.171875 -15.421875 L 13.625 -15.421875 L 13.625 -5.921875 L 13.171875 -5.921875 C 13.171875 -7.335938 12.703125 -8.441406 11.765625 -9.234375 C 10.835938 -10.035156 9.597656 -10.453125 8.046875 -10.484375 L 7.53125 -10.484375 L 7.53125 -0.375 L 10.140625 -0.375 C 11.585938 -0.375 12.957031 -0.664062 14.25 -1.25 C 15.550781 -1.84375 16.625 -2.648438 17.46875 -3.671875 C 18.320312 -4.691406 18.789062 -5.851562 18.875 -7.15625 L 19.25 -7.15625 L 18.609375 0 Z M 1.875 0 "/></g></g></g><g fill="#2f2e2a" fill-opacity="1"><g transform="translate(120.318025, 29.66528)"><g/></g></g><g fill="#2f2e2a" fill-opacity="1"><g transform="translate(128.552704, 29.66528)"><g><path d="M 10.109375 0.375 C 8.585938 0.375 7.140625 0.140625 5.765625 -0.328125 C 4.390625 -0.804688 3.269531 -1.484375 2.40625 -2.359375 C 1.550781 -3.234375 1.125 -4.28125 1.125 -5.5 C 1.125 -6.25 1.375 -6.847656 1.875 -7.296875 C 2.375 -7.742188 2.984375 -7.96875 3.703125 -7.96875 C 4.628906 -7.96875 5.363281 -7.679688 5.90625 -7.109375 C 6.457031 -6.535156 6.734375 -5.863281 6.734375 -5.09375 C 6.734375 -5.09375 6.640625 -5.0625 6.453125 -5 C 6.265625 -4.9375 6.066406 -4.816406 5.859375 -4.640625 C 5.648438 -4.460938 5.503906 -4.175781 5.421875 -3.78125 C 5.398438 -3.675781 5.390625 -3.570312 5.390625 -3.46875 C 5.390625 -3.375 5.390625 -3.28125 5.390625 -3.1875 C 5.390625 -2.457031 5.617188 -1.867188 6.078125 -1.421875 C 6.546875 -0.972656 7.128906 -0.640625 7.828125 -0.421875 C 8.523438 -0.210938 9.210938 -0.109375 9.890625 -0.109375 C 10.410156 -0.109375 11.015625 -0.179688 11.703125 -0.328125 C 12.390625 -0.484375 12.988281 -0.765625 13.5 -1.171875 C 14.007812 -1.585938 14.265625 -2.171875 14.265625 -2.921875 C 14.265625 -3.722656 13.976562 -4.421875 13.40625 -5.015625 C 12.832031 -5.617188 12.082031 -6.164062 11.15625 -6.65625 C 10.226562 -7.15625 9.238281 -7.660156 8.1875 -8.171875 C 7.144531 -8.691406 6.148438 -9.242188 5.203125 -9.828125 C 4.253906 -10.410156 3.453125 -11.078125 2.796875 -11.828125 C 2.148438 -12.578125 1.765625 -13.460938 1.640625 -14.484375 C 1.472656 -16.054688 1.742188 -17.34375 2.453125 -18.34375 C 3.160156 -19.34375 4.15625 -20.078125 5.4375 -20.546875 C 6.726562 -21.023438 8.148438 -21.265625 9.703125 -21.265625 C 10.972656 -21.265625 12.164062 -21.050781 13.28125 -20.625 C 14.40625 -20.195312 15.316406 -19.582031 16.015625 -18.78125 C 16.722656 -17.988281 17.078125 -17.03125 17.078125 -15.90625 C 17.078125 -15.257812 16.863281 -14.742188 16.4375 -14.359375 C 16.007812 -13.972656 15.472656 -13.78125 14.828125 -13.78125 C 14.023438 -13.78125 13.378906 -14.035156 12.890625 -14.546875 C 12.410156 -15.054688 12.171875 -15.632812 12.171875 -16.28125 C 12.171875 -16.28125 12.273438 -16.316406 12.484375 -16.390625 C 12.691406 -16.472656 12.898438 -16.65625 13.109375 -16.9375 C 13.328125 -17.226562 13.4375 -17.6875 13.4375 -18.3125 C 13.4375 -19.0625 13.097656 -19.648438 12.421875 -20.078125 C 11.753906 -20.515625 10.867188 -20.734375 9.765625 -20.734375 C 8.773438 -20.734375 7.910156 -20.519531 7.171875 -20.09375 C 6.429688 -19.675781 6.0625 -18.957031 6.0625 -17.9375 C 6.0625 -17.082031 6.351562 -16.34375 6.9375 -15.71875 C 7.53125 -15.09375 8.285156 -14.53125 9.203125 -14.03125 C 10.128906 -13.539062 11.113281 -13.054688 12.15625 -12.578125 C 13.207031 -12.109375 14.210938 -11.609375 15.171875 -11.078125 C 16.140625 -10.554688 16.945312 -9.957031 17.59375 -9.28125 C 18.238281 -8.613281 18.601562 -7.816406 18.6875 -6.890625 C 18.882812 -5.335938 18.601562 -4.019531 17.84375 -2.9375 C 17.082031 -1.851562 16.015625 -1.03125 14.640625 -0.46875 C 13.265625 0.09375 11.753906 0.375 10.109375 0.375 Z M 10.109375 0.375 "/></g></g></g><g fill="#2f2e2a" fill-opacity="1"><g transform="translate(149.064334, 29.66528)"><g><path d="M 8.28125 -0.03125 L 8.28125 -8.640625 L 0.5625 -20.96875 L 6.21875 -20.96875 L 13.703125 -9.015625 L 20.515625 -20.859375 L 20.859375 -20.671875 L 13.921875 -8.640625 L 13.921875 -0.03125 Z M 8.28125 -0.03125 "/></g></g></g><g fill="#2f2e2a" fill-opacity="1"><g transform="translate(171.110587, 29.66528)"><g><path d="M 19.734375 0.59375 L 2.25 -17.96875 L 2.25 0 L 1.875 0 L 1.875 -20.96875 L 7.859375 -20.96875 L 19.359375 -8.3125 L 19.359375 -20.96875 L 19.734375 -20.96875 Z M 19.734375 0.59375 "/></g></g></g><g fill="#2f2e2a" fill-opacity="1"><g transform="translate(193.343992, 29.66528)"><g><path d="M 12.09375 0.375 C 10.539062 0.375 9.09375 0.09375 7.75 -0.46875 C 6.40625 -1.03125 5.21875 -1.800781 4.1875 -2.78125 C 3.164062 -3.769531 2.367188 -4.910156 1.796875 -6.203125 C 1.222656 -7.503906 0.9375 -8.90625 0.9375 -10.40625 C 0.9375 -11.90625 1.222656 -13.300781 1.796875 -14.59375 C 2.367188 -15.894531 3.171875 -17.046875 4.203125 -18.046875 C 5.242188 -19.046875 6.441406 -19.828125 7.796875 -20.390625 C 9.160156 -20.953125 10.628906 -21.234375 12.203125 -21.234375 C 13.128906 -21.234375 14.046875 -21.0625 14.953125 -20.71875 C 15.867188 -20.382812 16.707031 -19.929688 17.46875 -19.359375 C 18.226562 -18.785156 18.832031 -18.128906 19.28125 -17.390625 C 19.726562 -16.648438 19.953125 -15.882812 19.953125 -15.09375 C 19.953125 -14.289062 19.6875 -13.644531 19.15625 -13.15625 C 18.632812 -12.664062 17.976562 -12.421875 17.1875 -12.421875 C 16.1875 -12.421875 15.390625 -12.734375 14.796875 -13.359375 C 14.210938 -13.984375 13.921875 -14.707031 13.921875 -15.53125 C 13.921875 -15.53125 14.023438 -15.5625 14.234375 -15.625 C 14.453125 -15.6875 14.671875 -15.816406 14.890625 -16.015625 C 15.117188 -16.222656 15.269531 -16.535156 15.34375 -16.953125 C 15.570312 -18.203125 15.375 -19.144531 14.75 -19.78125 C 14.125 -20.414062 13.335938 -20.734375 12.390625 -20.734375 C 11.335938 -20.734375 10.460938 -20.441406 9.765625 -19.859375 C 9.066406 -19.273438 8.523438 -18.484375 8.140625 -17.484375 C 7.753906 -16.484375 7.476562 -15.367188 7.3125 -14.140625 C 7.15625 -12.921875 7.078125 -11.6875 7.078125 -10.4375 C 7.078125 -8.445312 7.25 -6.671875 7.59375 -5.109375 C 7.945312 -3.546875 8.519531 -2.320312 9.3125 -1.4375 C 10.113281 -0.550781 11.175781 -0.109375 12.5 -0.109375 C 13.050781 -0.109375 13.707031 -0.175781 14.46875 -0.3125 C 15.226562 -0.457031 16.03125 -0.796875 16.875 -1.328125 C 17.726562 -1.867188 18.539062 -2.738281 19.3125 -3.9375 L 19.765625 -3.9375 C 19.171875 -2.8125 18.4375 -1.9375 17.5625 -1.3125 C 16.6875 -0.6875 15.773438 -0.25 14.828125 0 C 13.878906 0.25 12.976562 0.375 12.125 0.375 Z M 12.09375 0.375 "/></g></g></g><g clip-path="url(#3d68942437)"><path fill="#ffffff" d="M 54.660156 1.128906 L 76.820312 1.128906 L 76.820312 35.230469 L 54.660156 35.230469 Z M 54.660156 1.128906 " fill-opacity="1" fill-rule="nonzero"/></g><g clip-path="url(#5a83674cd7)"><path fill="#ff6f28" d="M 74.097656 32.914062 C 74.457031 32.554688 74.902344 31.421875 74.902344 29.917969 C 74.902344 28.625 74.574219 27.054688 73.582031 25.46875 C 72.09375 23.097656 69.53125 20.136719 67.582031 17.929688 C 67.964844 17.34375 68.226562 16.953125 68.308594 16.835938 C 68.75 16.207031 69.125 15.140625 69.242188 13.832031 C 69.441406 13.921875 69.652344 14 69.878906 14.0625 C 72.113281 14.671875 73.933594 13.335938 74.660156 10.667969 C 75.382812 8.003906 74.472656 5.925781 72.253906 5.320312 C 70.019531 4.714844 68.199219 6.050781 67.472656 8.714844 C 67.351562 9.164062 67.273438 9.660156 67.261719 10 C 67.171875 12.121094 67.226562 14.144531 66.875 14.847656 C 66.789062 15.023438 66.433594 15.445312 65.914062 16.042969 C 65.390625 15.445312 65.039062 15.023438 64.953125 14.847656 C 64.601562 14.144531 64.65625 12.121094 64.566406 10 C 64.554688 9.660156 64.476562 9.164062 64.355469 8.714844 C 63.644531 6.109375 61.890625 4.777344 59.726562 5.285156 C 59.695312 5.253906 59.664062 5.222656 59.632812 5.1875 C 59.085938 4.628906 59.207031 3.421875 58.445312 3.597656 C 57.691406 3.773438 57.613281 5.410156 57.945312 6.234375 C 57.277344 6.902344 56.925781 7.839844 56.925781 8.957031 C 56.925781 9.492188 57.003906 10.066406 57.167969 10.667969 C 57.894531 13.335938 59.714844 14.671875 61.949219 14.0625 C 62.175781 14 62.386719 13.921875 62.585938 13.832031 C 62.703125 15.140625 63.078125 16.207031 63.519531 16.835938 C 64.117188 17.691406 74.097656 32.914062 74.097656 32.914062 Z M 70.328125 12.40625 C 69.167969 12.09375 69.289062 10.863281 69.707031 9.324219 C 70.128906 7.785156 70.664062 6.667969 71.804688 6.976562 C 72.945312 7.289062 72.84375 8.523438 72.421875 10.0625 C 72 11.617188 71.488281 12.722656 70.328125 12.40625 Z M 59.402344 10.0625 C 59.230469 9.425781 59.113281 8.84375 59.113281 8.355469 C 59.113281 7.660156 59.351562 7.160156 60.023438 6.976562 C 61.164062 6.667969 61.699219 7.785156 62.117188 9.324219 C 62.292969 9.964844 62.414062 10.550781 62.414062 11.042969 C 62.414062 11.730469 62.175781 12.222656 61.5 12.40625 C 60.339844 12.722656 59.828125 11.617188 59.402344 10.0625 Z M 59.402344 10.0625 " fill-opacity="1" fill-rule="nonzero"/></g><g clip-path="url(#f45f72f33f)"><path fill="#ff6f28" d="M 63.839844 18.390625 C 61.953125 20.535156 59.632812 23.261719 58.246094 25.46875 C 56.097656 28.898438 57.058594 32.25 57.730469 32.914062 C 57.730469 32.914062 62.414062 25.765625 65.558594 20.992188 C 64.882812 19.96875 64.289062 19.066406 63.839844 18.390625 Z M 63.839844 18.390625 " fill-opacity="1" fill-rule="nonzero"/></g><g fill="#ff6f28" fill-opacity="1"><g transform="translate(44.83776, 43.807064)"><g><path d="M 0.84375 0 L 0.84375 -6.171875 L 2.59375 -6.171875 C 3.3125 -6.171875 3.878906 -6.046875 4.296875 -5.796875 C 4.722656 -5.554688 4.9375 -5.195312 4.9375 -4.71875 C 4.9375 -4.375 4.816406 -4.078125 4.578125 -3.828125 C 4.335938 -3.578125 4.003906 -3.382812 3.578125 -3.25 C 4.140625 -3.144531 4.566406 -2.953125 4.859375 -2.671875 C 5.148438 -2.398438 5.296875 -2.097656 5.296875 -1.765625 C 5.296875 -1.441406 5.207031 -1.160156 5.03125 -0.921875 C 4.863281 -0.691406 4.648438 -0.515625 4.390625 -0.390625 C 3.867188 -0.128906 3.332031 0 2.78125 0 Z M 1.734375 -3.34375 L 2.40625 -3.34375 C 2.976562 -3.34375 3.382812 -3.46875 3.625 -3.71875 C 3.875 -3.96875 4 -4.285156 4 -4.671875 C 4 -4.921875 3.910156 -5.148438 3.734375 -5.359375 C 3.566406 -5.566406 3.304688 -5.722656 2.953125 -5.828125 C 2.523438 -5.828125 2.117188 -5.765625 1.734375 -5.640625 Z M 1.734375 -3.078125 L 1.734375 -0.421875 C 1.941406 -0.359375 2.25 -0.328125 2.65625 -0.328125 C 3.070312 -0.328125 3.441406 -0.441406 3.765625 -0.671875 C 4.085938 -0.898438 4.25 -1.21875 4.25 -1.625 C 4.25 -2.039062 4.070312 -2.382812 3.71875 -2.65625 C 3.363281 -2.9375 2.941406 -3.078125 2.453125 -3.078125 Z M 1.734375 -3.078125 "/></g></g></g><g fill="#ff6f28" fill-opacity="1"><g transform="translate(58.292488, 43.807064)"><g><path d="M 0.09375 0 L 2.859375 -6.3125 L 3 -6.3125 L 5.765625 0 L 4.75 0 L 4.046875 -1.671875 L 1.28125 -1.671875 L 0.59375 0 Z M 1.421875 -2.03125 L 3.90625 -2.03125 L 2.671875 -5.046875 Z M 1.421875 -2.03125 "/></g></g></g><g fill="#ff6f28" fill-opacity="1"><g transform="translate(71.607534, 43.807064)"><g><path d="M 1.75 -2.9375 L 1.75 0 L 0.84375 0 L 0.84375 -6.171875 L 2.84375 -6.171875 C 3.476562 -6.171875 3.992188 -6.03125 4.390625 -5.75 C 4.785156 -5.46875 4.984375 -5.097656 4.984375 -4.640625 C 4.984375 -4.179688 4.820312 -3.820312 4.5 -3.5625 C 4.1875 -3.300781 3.757812 -3.117188 3.21875 -3.015625 L 5.703125 0 L 4.625 0.125 L 2.46875 -2.9375 Z M 1.75 -3.21875 L 2.34375 -3.21875 C 3.457031 -3.21875 4.015625 -3.660156 4.015625 -4.546875 C 4.015625 -4.691406 3.976562 -4.859375 3.90625 -5.046875 C 3.769531 -5.441406 3.46875 -5.695312 3 -5.8125 C 2.570312 -5.8125 2.15625 -5.757812 1.75 -5.65625 Z M 1.75 -3.21875 "/></g></g></g><g fill="#ff6f28" fill-opacity="1"><g transform="translate(85.006391, 43.807064)"><g><path d="M 0.84375 0 L 0.84375 -6.171875 L 2.59375 -6.171875 C 3.3125 -6.171875 3.878906 -6.046875 4.296875 -5.796875 C 4.722656 -5.554688 4.9375 -5.195312 4.9375 -4.71875 C 4.9375 -4.375 4.816406 -4.078125 4.578125 -3.828125 C 4.335938 -3.578125 4.003906 -3.382812 3.578125 -3.25 C 4.140625 -3.144531 4.566406 -2.953125 4.859375 -2.671875 C 5.148438 -2.398438 5.296875 -2.097656 5.296875 -1.765625 C 5.296875 -1.441406 5.207031 -1.160156 5.03125 -0.921875 C 4.863281 -0.691406 4.648438 -0.515625 4.390625 -0.390625 C 3.867188 -0.128906 3.332031 0 2.78125 0 Z M 1.734375 -3.34375 L 2.40625 -3.34375 C 2.976562 -3.34375 3.382812 -3.46875 3.625 -3.71875 C 3.875 -3.96875 4 -4.285156 4 -4.671875 C 4 -4.921875 3.910156 -5.148438 3.734375 -5.359375 C 3.566406 -5.566406 3.304688 -5.722656 2.953125 -5.828125 C 2.523438 -5.828125 2.117188 -5.765625 1.734375 -5.640625 Z M 1.734375 -3.078125 L 1.734375 -0.421875 C 1.941406 -0.359375 2.25 -0.328125 2.65625 -0.328125 C 3.070312 -0.328125 3.441406 -0.441406 3.765625 -0.671875 C 4.085938 -0.898438 4.25 -1.21875 4.25 -1.625 C 4.25 -2.039062 4.070312 -2.382812 3.71875 -2.65625 C 3.363281 -2.9375 2.941406 -3.078125 2.453125 -3.078125 Z M 1.734375 -3.078125 "/></g></g></g><g fill="#ff6f28" fill-opacity="1"><g transform="translate(98.461122, 43.807064)"><g><path d="M 0.84375 0 L 0.84375 -6.171875 L 4.578125 -6.171875 L 4.484375 -5.546875 L 2.75 -5.828125 C 2.445312 -5.828125 2.109375 -5.773438 1.734375 -5.671875 L 1.734375 -3.40625 L 3.8125 -3.40625 L 3.8125 -3.046875 L 1.734375 -3.046875 L 1.734375 -0.328125 L 4.625 -0.625 L 4.53125 0 Z M 0.84375 0 "/></g></g></g><g fill="#ff6f28" fill-opacity="1"><g transform="translate(111.152268, 43.807064)"><g><path d="M 1.75 -2.9375 L 1.75 0 L 0.84375 0 L 0.84375 -6.171875 L 2.84375 -6.171875 C 3.476562 -6.171875 3.992188 -6.03125 4.390625 -5.75 C 4.785156 -5.46875 4.984375 -5.097656 4.984375 -4.640625 C 4.984375 -4.179688 4.820312 -3.820312 4.5 -3.5625 C 4.1875 -3.300781 3.757812 -3.117188 3.21875 -3.015625 L 5.703125 0 L 4.625 0.125 L 2.46875 -2.9375 Z M 1.75 -3.21875 L 2.34375 -3.21875 C 3.457031 -3.21875 4.015625 -3.660156 4.015625 -4.546875 C 4.015625 -4.691406 3.976562 -4.859375 3.90625 -5.046875 C 3.769531 -5.441406 3.46875 -5.695312 3 -5.8125 C 2.570312 -5.8125 2.15625 -5.757812 1.75 -5.65625 Z M 1.75 -3.21875 "/></g></g></g><g fill="#ff6f28" fill-opacity="1"><g transform="translate(124.551129, 43.807064)"><g/></g></g><g fill="#ff6f28" fill-opacity="1"><g transform="translate(134.336941, 43.807064)"><g><path d="M 1.515625 -5.09375 C 1.515625 -4.820312 1.617188 -4.566406 1.828125 -4.328125 C 2.046875 -4.097656 2.304688 -3.894531 2.609375 -3.71875 C 2.921875 -3.539062 3.226562 -3.359375 3.53125 -3.171875 C 3.832031 -2.992188 4.085938 -2.769531 4.296875 -2.5 C 4.515625 -2.238281 4.625 -1.945312 4.625 -1.625 C 4.625 -1.113281 4.4375 -0.695312 4.0625 -0.375 C 3.6875 -0.0507812 3.175781 0.109375 2.53125 0.109375 C 1.894531 0.109375 1.265625 -0.0078125 0.640625 -0.25 L 0.640625 -0.6875 C 1.273438 -0.375 1.8125 -0.21875 2.25 -0.21875 C 2.695312 -0.21875 3.046875 -0.320312 3.296875 -0.53125 C 3.546875 -0.75 3.671875 -1.050781 3.671875 -1.4375 C 3.671875 -1.695312 3.566406 -1.9375 3.359375 -2.15625 C 3.148438 -2.375 2.898438 -2.5625 2.609375 -2.71875 C 2.316406 -2.875 2.023438 -3.035156 1.734375 -3.203125 C 1.441406 -3.367188 1.191406 -3.582031 0.984375 -3.84375 C 0.785156 -4.101562 0.6875 -4.414062 0.6875 -4.78125 C 0.6875 -5.144531 0.847656 -5.484375 1.171875 -5.796875 C 1.503906 -6.117188 1.992188 -6.28125 2.640625 -6.28125 C 3.054688 -6.28125 3.585938 -6.179688 4.234375 -5.984375 L 4.140625 -5.359375 C 3.304688 -5.710938 2.59375 -5.890625 2 -5.890625 C 1.675781 -5.734375 1.515625 -5.46875 1.515625 -5.09375 Z M 1.515625 -5.09375 "/></g></g></g><g fill="#ff6f28" fill-opacity="1"><g transform="translate(146.972218, 43.807064)"><g><path d="M 1.734375 -3.046875 L 1.734375 0 L 0.84375 0 L 0.84375 -6.171875 L 1.734375 -6.171875 L 1.734375 -3.40625 L 4.5625 -3.40625 L 4.5625 -6.171875 L 5.46875 -6.171875 L 5.46875 0 L 4.5625 0 L 4.5625 -3.046875 Z M 1.734375 -3.046875 "/></g></g></g><g fill="#ff6f28" fill-opacity="1"><g transform="translate(160.734248, 43.807064)"><g><path d="M 3.640625 -6.28125 C 4.453125 -6.28125 5.117188 -6.015625 5.640625 -5.484375 C 6.171875 -4.953125 6.4375 -4.210938 6.4375 -3.265625 C 6.4375 -2.660156 6.328125 -2.128906 6.109375 -1.671875 C 5.898438 -1.210938 5.628906 -0.859375 5.296875 -0.609375 C 4.628906 -0.128906 3.894531 0.109375 3.09375 0.109375 C 2.289062 0.109375 1.625 -0.15625 1.09375 -0.6875 C 0.570312 -1.226562 0.3125 -1.972656 0.3125 -2.921875 C 0.3125 -3.410156 0.378906 -3.847656 0.515625 -4.234375 C 0.660156 -4.628906 0.847656 -4.953125 1.078125 -5.203125 C 1.304688 -5.453125 1.566406 -5.660156 1.859375 -5.828125 C 2.410156 -6.128906 3.003906 -6.28125 3.640625 -6.28125 Z M 1.765625 -1.0625 C 1.929688 -0.789062 2.148438 -0.578125 2.421875 -0.421875 C 2.691406 -0.273438 3.003906 -0.203125 3.359375 -0.203125 C 3.722656 -0.203125 4.039062 -0.289062 4.3125 -0.46875 C 4.59375 -0.644531 4.8125 -0.878906 4.96875 -1.171875 C 5.289062 -1.753906 5.453125 -2.378906 5.453125 -3.046875 C 5.453125 -3.878906 5.285156 -4.546875 4.953125 -5.046875 C 4.585938 -5.609375 3.984375 -5.890625 3.140625 -5.890625 C 2.535156 -5.679688 2.078125 -5.316406 1.765625 -4.796875 C 1.453125 -4.285156 1.296875 -3.703125 1.296875 -3.046875 C 1.296875 -2.253906 1.453125 -1.59375 1.765625 -1.0625 Z M 1.765625 -1.0625 "/></g></g></g><g fill="#ff6f28" fill-opacity="1"><g transform="translate(174.943251, 43.807064)"><g><path d="M 4.984375 -4.5625 C 4.984375 -3.96875 4.765625 -3.515625 4.328125 -3.203125 C 3.890625 -2.898438 3.296875 -2.75 2.546875 -2.75 L 1.734375 -2.75 L 1.734375 0 L 0.84375 0 L 0.84375 -6.171875 L 2.84375 -6.171875 C 3.46875 -6.171875 3.976562 -6.023438 4.375 -5.734375 C 4.78125 -5.453125 4.984375 -5.0625 4.984375 -4.5625 Z M 1.734375 -3.015625 L 2.5625 -3.015625 C 2.863281 -3.015625 3.113281 -3.070312 3.3125 -3.1875 C 3.519531 -3.300781 3.671875 -3.441406 3.765625 -3.609375 C 3.929688 -3.921875 4.015625 -4.222656 4.015625 -4.515625 C 4.015625 -4.660156 3.976562 -4.832031 3.90625 -5.03125 C 3.757812 -5.4375 3.453125 -5.703125 2.984375 -5.828125 C 2.535156 -5.828125 2.117188 -5.773438 1.734375 -5.671875 Z M 1.734375 -3.015625 "/></g></g></g></svg>