<svg xmlns="http://www.w3.org/2000/svg" xmlns:xlink="http://www.w3.org/1999/xlink" width="260" zoomAndPan="magnify" viewBox="0 0 194.87999 30.000001" height="40" preserveAspectRatio="xMidYMid meet" version="1.0"><defs><g/><clipPath id="a5b1774de9"><path d="M 50.027344 2.042969 L 66 2.042969 L 66 27 L 50.027344 27 Z M 50.027344 2.042969 " clip-rule="nonzero"/></clipPath><clipPath id="8c2e41e262"><path d="M 50.027344 14 L 59 14 L 59 27 L 50.027344 27 Z M 50.027344 14 " clip-rule="nonzero"/></clipPath></defs><g fill="#ffffff" fill-opacity="1"><g transform="translate(10.844353, 24.217106)"><g><path d="M 8.484375 0.3125 C 7.210938 0.3125 6 0.113281 4.84375 -0.28125 C 3.6875 -0.675781 2.742188 -1.238281 2.015625 -1.96875 C 1.296875 -2.707031 0.9375 -3.59375 0.9375 -4.625 C 0.9375 -5.25 1.144531 -5.75 1.5625 -6.125 C 1.988281 -6.507812 2.503906 -6.703125 3.109375 -6.703125 C 3.890625 -6.703125 4.507812 -6.457031 4.96875 -5.96875 C 5.425781 -5.488281 5.65625 -4.925781 5.65625 -4.28125 C 5.65625 -4.28125 5.578125 -4.253906 5.421875 -4.203125 C 5.265625 -4.148438 5.097656 -4.046875 4.921875 -3.890625 C 4.742188 -3.742188 4.625 -3.503906 4.5625 -3.171875 C 4.539062 -3.085938 4.53125 -3.003906 4.53125 -2.921875 C 4.53125 -2.835938 4.53125 -2.753906 4.53125 -2.671875 C 4.53125 -2.066406 4.722656 -1.570312 5.109375 -1.1875 C 5.492188 -0.8125 5.976562 -0.535156 6.5625 -0.359375 C 7.15625 -0.179688 7.734375 -0.09375 8.296875 -0.09375 C 8.734375 -0.09375 9.238281 -0.15625 9.8125 -0.28125 C 10.394531 -0.40625 10.898438 -0.640625 11.328125 -0.984375 C 11.765625 -1.335938 11.984375 -1.828125 11.984375 -2.453125 C 11.984375 -3.117188 11.738281 -3.703125 11.25 -4.203125 C 10.769531 -4.710938 10.140625 -5.175781 9.359375 -5.59375 C 8.585938 -6.007812 7.757812 -6.429688 6.875 -6.859375 C 6 -7.296875 5.160156 -7.757812 4.359375 -8.25 C 3.566406 -8.738281 2.898438 -9.296875 2.359375 -9.921875 C 1.816406 -10.554688 1.492188 -11.304688 1.390625 -12.171875 C 1.234375 -13.484375 1.453125 -14.554688 2.046875 -15.390625 C 2.648438 -16.234375 3.488281 -16.851562 4.5625 -17.25 C 5.644531 -17.65625 6.835938 -17.859375 8.140625 -17.859375 C 9.210938 -17.859375 10.21875 -17.675781 11.15625 -17.3125 C 12.101562 -16.957031 12.867188 -16.445312 13.453125 -15.78125 C 14.035156 -15.113281 14.328125 -14.304688 14.328125 -13.359375 C 14.328125 -12.816406 14.148438 -12.378906 13.796875 -12.046875 C 13.441406 -11.722656 12.992188 -11.5625 12.453125 -11.5625 C 11.773438 -11.5625 11.234375 -11.773438 10.828125 -12.203125 C 10.421875 -12.640625 10.21875 -13.128906 10.21875 -13.671875 C 10.21875 -13.671875 10.304688 -13.703125 10.484375 -13.765625 C 10.660156 -13.828125 10.835938 -13.976562 11.015625 -14.21875 C 11.191406 -14.46875 11.28125 -14.851562 11.28125 -15.375 C 11.28125 -16 11 -16.492188 10.4375 -16.859375 C 9.875 -17.234375 9.128906 -17.421875 8.203125 -17.421875 C 7.367188 -17.421875 6.640625 -17.238281 6.015625 -16.875 C 5.398438 -16.519531 5.09375 -15.914062 5.09375 -15.0625 C 5.09375 -14.34375 5.335938 -13.722656 5.828125 -13.203125 C 6.328125 -12.679688 6.960938 -12.207031 7.734375 -11.78125 C 8.503906 -11.363281 9.328125 -10.957031 10.203125 -10.5625 C 11.085938 -10.164062 11.929688 -9.742188 12.734375 -9.296875 C 13.546875 -8.859375 14.222656 -8.359375 14.765625 -7.796875 C 15.316406 -7.234375 15.625 -6.5625 15.6875 -5.78125 C 15.851562 -4.476562 15.613281 -3.367188 14.96875 -2.453125 C 14.332031 -1.546875 13.4375 -0.859375 12.28125 -0.390625 C 11.132812 0.078125 9.867188 0.3125 8.484375 0.3125 Z M 8.484375 0.3125 "/></g></g></g><g fill="#ffffff" fill-opacity="1"><g transform="translate(28.067145, 24.217106)"><g><path d="M 1.578125 0 L 1.578125 -17.609375 L 6.3125 -17.609375 L 6.3125 -9.046875 L 12.671875 -9.046875 L 12.671875 -17.609375 L 17.421875 -17.609375 L 17.421875 0 L 12.671875 0 L 12.671875 -8.734375 L 6.3125 -8.734375 L 6.3125 0 Z M 1.578125 0 "/></g></g></g><g fill="#ffffff" fill-opacity="1"><g transform="translate(47.588754, 24.217106)"><g/></g></g><g fill="#ffffff" fill-opacity="1"><g transform="translate(54.503123, 24.217106)"><g/></g></g><g fill="#ffffff" fill-opacity="1"><g transform="translate(61.417492, 24.217106)"><g/></g></g><g fill="#ffffff" fill-opacity="1"><g transform="translate(68.335194, 24.217106)"><g><path d="M 9.5 0.3125 L 0.46875 -17.609375 L 5.6875 -17.609375 L 11.4375 -4.90625 L 17.234375 -17.609375 L 17.578125 -17.609375 Z M 9.5 0.3125 "/></g></g></g><g fill="#ffffff" fill-opacity="1"><g transform="translate(86.909396, 24.217106)"><g><path d="M 1.578125 0 L 1.578125 -17.609375 L 15.03125 -17.609375 L 15.03125 -11.75 L 14.71875 -11.75 C 14.71875 -12.84375 14.453125 -13.800781 13.921875 -14.625 C 13.398438 -15.457031 12.671875 -16.109375 11.734375 -16.578125 C 10.804688 -17.054688 9.734375 -17.296875 8.515625 -17.296875 L 6.3125 -17.296875 L 6.3125 -9.109375 L 6.703125 -9.109375 C 8.035156 -9.128906 9.09375 -9.46875 9.875 -10.125 C 10.664062 -10.789062 11.0625 -11.734375 11.0625 -12.953125 L 11.4375 -12.953125 L 11.4375 -4.96875 L 11.0625 -4.96875 C 11.0625 -6.164062 10.664062 -7.097656 9.875 -7.765625 C 9.09375 -8.429688 8.054688 -8.773438 6.765625 -8.796875 L 6.3125 -8.796875 L 6.3125 -0.3125 L 8.515625 -0.3125 C 9.734375 -0.3125 10.882812 -0.554688 11.96875 -1.046875 C 13.0625 -1.546875 13.960938 -2.222656 14.671875 -3.078125 C 15.390625 -3.941406 15.78125 -4.914062 15.84375 -6 L 16.15625 -6 L 15.625 0 Z M 1.578125 0 "/></g></g></g><g fill="#ffffff" fill-opacity="1"><g transform="translate(105.169311, 24.217106)"><g/></g></g><g fill="#ffffff" fill-opacity="1"><g transform="translate(112.083681, 24.217106)"><g><path d="M 8.484375 0.3125 C 7.210938 0.3125 6 0.113281 4.84375 -0.28125 C 3.6875 -0.675781 2.742188 -1.238281 2.015625 -1.96875 C 1.296875 -2.707031 0.9375 -3.59375 0.9375 -4.625 C 0.9375 -5.25 1.144531 -5.75 1.5625 -6.125 C 1.988281 -6.507812 2.503906 -6.703125 3.109375 -6.703125 C 3.890625 -6.703125 4.507812 -6.457031 4.96875 -5.96875 C 5.425781 -5.488281 5.65625 -4.925781 5.65625 -4.28125 C 5.65625 -4.28125 5.578125 -4.253906 5.421875 -4.203125 C 5.265625 -4.148438 5.097656 -4.046875 4.921875 -3.890625 C 4.742188 -3.742188 4.625 -3.503906 4.5625 -3.171875 C 4.539062 -3.085938 4.53125 -3.003906 4.53125 -2.921875 C 4.53125 -2.835938 4.53125 -2.753906 4.53125 -2.671875 C 4.53125 -2.066406 4.722656 -1.570312 5.109375 -1.1875 C 5.492188 -0.8125 5.976562 -0.535156 6.5625 -0.359375 C 7.15625 -0.179688 7.734375 -0.09375 8.296875 -0.09375 C 8.734375 -0.09375 9.238281 -0.15625 9.8125 -0.28125 C 10.394531 -0.40625 10.898438 -0.640625 11.328125 -0.984375 C 11.765625 -1.335938 11.984375 -1.828125 11.984375 -2.453125 C 11.984375 -3.117188 11.738281 -3.703125 11.25 -4.203125 C 10.769531 -4.710938 10.140625 -5.175781 9.359375 -5.59375 C 8.585938 -6.007812 7.757812 -6.429688 6.875 -6.859375 C 6 -7.296875 5.160156 -7.757812 4.359375 -8.25 C 3.566406 -8.738281 2.898438 -9.296875 2.359375 -9.921875 C 1.816406 -10.554688 1.492188 -11.304688 1.390625 -12.171875 C 1.234375 -13.484375 1.453125 -14.554688 2.046875 -15.390625 C 2.648438 -16.234375 3.488281 -16.851562 4.5625 -17.25 C 5.644531 -17.65625 6.835938 -17.859375 8.140625 -17.859375 C 9.210938 -17.859375 10.21875 -17.675781 11.15625 -17.3125 C 12.101562 -16.957031 12.867188 -16.445312 13.453125 -15.78125 C 14.035156 -15.113281 14.328125 -14.304688 14.328125 -13.359375 C 14.328125 -12.816406 14.148438 -12.378906 13.796875 -12.046875 C 13.441406 -11.722656 12.992188 -11.5625 12.453125 -11.5625 C 11.773438 -11.5625 11.234375 -11.773438 10.828125 -12.203125 C 10.421875 -12.640625 10.21875 -13.128906 10.21875 -13.671875 C 10.21875 -13.671875 10.304688 -13.703125 10.484375 -13.765625 C 10.660156 -13.828125 10.835938 -13.976562 11.015625 -14.21875 C 11.191406 -14.46875 11.28125 -14.851562 11.28125 -15.375 C 11.28125 -16 11 -16.492188 10.4375 -16.859375 C 9.875 -17.234375 9.128906 -17.421875 8.203125 -17.421875 C 7.367188 -17.421875 6.640625 -17.238281 6.015625 -16.875 C 5.398438 -16.519531 5.09375 -15.914062 5.09375 -15.0625 C 5.09375 -14.34375 5.335938 -13.722656 5.828125 -13.203125 C 6.328125 -12.679688 6.960938 -12.207031 7.734375 -11.78125 C 8.503906 -11.363281 9.328125 -10.957031 10.203125 -10.5625 C 11.085938 -10.164062 11.929688 -9.742188 12.734375 -9.296875 C 13.546875 -8.859375 14.222656 -8.359375 14.765625 -7.796875 C 15.316406 -7.234375 15.625 -6.5625 15.6875 -5.78125 C 15.851562 -4.476562 15.613281 -3.367188 14.96875 -2.453125 C 14.332031 -1.546875 13.4375 -0.859375 12.28125 -0.390625 C 11.132812 0.078125 9.867188 0.3125 8.484375 0.3125 Z M 8.484375 0.3125 "/></g></g></g><g fill="#ffffff" fill-opacity="1"><g transform="translate(129.306472, 24.217106)"><g><path d="M 6.953125 -0.03125 L 6.953125 -7.265625 L 0.46875 -17.609375 L 5.21875 -17.609375 L 11.5 -7.578125 L 17.234375 -17.515625 L 17.515625 -17.359375 L 11.6875 -7.265625 L 11.6875 -0.03125 Z M 6.953125 -0.03125 "/></g></g></g><g fill="#ffffff" fill-opacity="1"><g transform="translate(147.817817, 24.217106)"><g><path d="M 16.5625 0.5 L 1.890625 -15.09375 L 1.890625 0 L 1.578125 0 L 1.578125 -17.609375 L 6.609375 -17.609375 L 16.25 -6.984375 L 16.25 -17.609375 L 16.5625 -17.609375 Z M 16.5625 0.5 "/></g></g></g><g fill="#ffffff" fill-opacity="1"><g transform="translate(166.486305, 24.217106)"><g><path d="M 10.15625 0.3125 C 8.851562 0.3125 7.632812 0.078125 6.5 -0.390625 C 5.375 -0.859375 4.378906 -1.503906 3.515625 -2.328125 C 2.660156 -3.160156 1.988281 -4.125 1.5 -5.21875 C 1.019531 -6.3125 0.78125 -7.484375 0.78125 -8.734375 C 0.78125 -9.992188 1.019531 -11.164062 1.5 -12.25 C 1.988281 -13.34375 2.664062 -14.304688 3.53125 -15.140625 C 4.40625 -15.984375 5.410156 -16.640625 6.546875 -17.109375 C 7.691406 -17.585938 8.925781 -17.828125 10.25 -17.828125 C 11.019531 -17.828125 11.785156 -17.679688 12.546875 -17.390625 C 13.316406 -17.109375 14.019531 -16.726562 14.65625 -16.25 C 15.300781 -15.769531 15.8125 -15.21875 16.1875 -14.59375 C 16.5625 -13.976562 16.75 -13.335938 16.75 -12.671875 C 16.75 -11.992188 16.53125 -11.453125 16.09375 -11.046875 C 15.65625 -10.640625 15.101562 -10.4375 14.4375 -10.4375 C 13.59375 -10.4375 12.921875 -10.695312 12.421875 -11.21875 C 11.929688 -11.75 11.6875 -12.359375 11.6875 -13.046875 C 11.6875 -13.046875 11.773438 -13.070312 11.953125 -13.125 C 12.140625 -13.175781 12.328125 -13.285156 12.515625 -13.453125 C 12.703125 -13.617188 12.828125 -13.878906 12.890625 -14.234375 C 13.078125 -15.285156 12.90625 -16.078125 12.375 -16.609375 C 11.851562 -17.148438 11.195312 -17.421875 10.40625 -17.421875 C 9.519531 -17.421875 8.785156 -17.171875 8.203125 -16.671875 C 7.617188 -16.179688 7.160156 -15.515625 6.828125 -14.671875 C 6.503906 -13.835938 6.273438 -12.90625 6.140625 -11.875 C 6.003906 -10.851562 5.9375 -9.816406 5.9375 -8.765625 C 5.9375 -7.085938 6.082031 -5.59375 6.375 -4.28125 C 6.675781 -2.976562 7.160156 -1.953125 7.828125 -1.203125 C 8.492188 -0.460938 9.382812 -0.09375 10.5 -0.09375 C 10.957031 -0.09375 11.503906 -0.148438 12.140625 -0.265625 C 12.785156 -0.378906 13.460938 -0.660156 14.171875 -1.109375 C 14.890625 -1.566406 15.570312 -2.296875 16.21875 -3.296875 L 16.59375 -3.296875 C 16.09375 -2.359375 15.472656 -1.625 14.734375 -1.09375 C 14.003906 -0.570312 13.238281 -0.207031 12.4375 0 C 11.644531 0.207031 10.894531 0.3125 10.1875 0.3125 Z M 10.15625 0.3125 "/></g></g></g><g clip-path="url(#a5b1774de9)"><path fill="#ffffff" d="M 65.242188 26.804688 C 65.546875 26.507812 65.917969 25.554688 65.917969 24.289062 C 65.917969 23.203125 65.644531 21.886719 64.808594 20.554688 C 63.5625 18.5625 61.40625 16.074219 59.769531 14.222656 C 60.09375 13.730469 60.3125 13.402344 60.382812 13.304688 C 60.753906 12.777344 61.066406 11.882812 61.164062 10.78125 C 61.332031 10.859375 61.507812 10.921875 61.699219 10.976562 C 63.574219 11.484375 65.105469 10.363281 65.714844 8.125 C 66.324219 5.886719 65.558594 4.140625 63.695312 3.632812 C 61.816406 3.125 60.289062 4.246094 59.679688 6.484375 C 59.578125 6.859375 59.511719 7.277344 59.5 7.5625 C 59.425781 9.34375 59.472656 11.046875 59.175781 11.636719 C 59.105469 11.78125 58.808594 12.136719 58.371094 12.636719 C 57.929688 12.136719 57.636719 11.78125 57.5625 11.636719 C 57.269531 11.046875 57.3125 9.34375 57.238281 7.5625 C 57.226562 7.277344 57.164062 6.859375 57.058594 6.484375 C 56.464844 4.296875 54.992188 3.175781 53.171875 3.601562 C 53.148438 3.578125 53.121094 3.550781 53.09375 3.523438 C 52.636719 3.054688 52.738281 2.039062 52.097656 2.1875 C 51.464844 2.332031 51.398438 3.707031 51.675781 4.402344 C 51.117188 4.960938 50.820312 5.75 50.820312 6.6875 C 50.820312 7.136719 50.886719 7.617188 51.027344 8.125 C 51.632812 10.363281 53.164062 11.484375 55.039062 10.976562 C 55.230469 10.925781 55.410156 10.859375 55.574219 10.78125 C 55.671875 11.882812 55.988281 12.777344 56.359375 13.304688 C 56.863281 14.023438 65.242188 26.804688 65.242188 26.804688 Z M 62.078125 9.585938 C 61.105469 9.320312 61.207031 8.289062 61.558594 6.996094 C 61.910156 5.703125 62.359375 4.765625 63.316406 5.023438 C 64.277344 5.285156 64.1875 6.324219 63.835938 7.617188 C 63.480469 8.921875 63.050781 9.851562 62.078125 9.585938 Z M 52.902344 7.617188 C 52.757812 7.082031 52.65625 6.589844 52.65625 6.179688 C 52.65625 5.597656 52.859375 5.179688 53.421875 5.023438 C 54.382812 4.765625 54.832031 5.703125 55.183594 6.996094 C 55.328125 7.535156 55.433594 8.027344 55.433594 8.4375 C 55.433594 9.015625 55.230469 9.429688 54.664062 9.585938 C 53.691406 9.851562 53.257812 8.921875 52.902344 7.617188 Z M 52.902344 7.617188 " fill-opacity="1" fill-rule="nonzero"/></g><g clip-path="url(#8c2e41e262)"><path fill="#ffffff" d="M 56.628906 14.609375 C 55.042969 16.414062 53.09375 18.699219 51.929688 20.554688 C 50.125 23.433594 50.933594 26.25 51.5 26.804688 C 51.5 26.804688 55.433594 20.804688 58.070312 16.796875 C 57.503906 15.933594 57.003906 15.179688 56.628906 14.609375 Z M 56.628906 14.609375 " fill-opacity="1" fill-rule="nonzero"/></g></svg>